<?xml version="1.0" encoding="UTF-8" standalone="no"?>
<svg
   xmlns:dc="http://purl.org/dc/elements/1.1/"
   xmlns:cc="http://creativecommons.org/ns#"
   xmlns:rdf="http://www.w3.org/1999/02/22-rdf-syntax-ns#"
   xmlns:svg="http://www.w3.org/2000/svg"
   xmlns="http://www.w3.org/2000/svg"
   id="svg8"
   version="1.1"
   viewBox="0 0 210 297"
   height="297mm"
   width="210mm">
  <defs
     id="defs2" />
  <metadata
     id="metadata5">
    <rdf:RDF>
      <cc:Work
         rdf:about="">
        <dc:format>image/svg+xml</dc:format>
        <dc:type
           rdf:resource="http://purl.org/dc/dcmitype/StillImage" />
        <dc:title></dc:title>
      </cc:Work>
    </rdf:RDF>
  </metadata>
  <g
     id="layer1" />
  <g
     id="layer2">
    <rect
       y="2.6044602"
       x="1.1179577"
       height="293.27759"
       width="207.94016"
       id="rect65"
       style="fill:#cccccc;stroke-width:0.26458332" />
  </g>
  <g
     id="layer3">
    <path
       id="path4051"
       d="M 27.570978,181.22373 V 84.767815 H 17.391757 c -7.4810058,0 -10.187211,-0.13428 -10.2093587,-0.506588 -0.057597,-0.968275 26.4879937,-60.894693 27.1056267,-61.190694 0.3418,-0.163805 6.671779,13.423104 14.066618,30.193134 7.39484,16.770026 13.642897,30.718932 13.884569,30.99756 0.334711,0.385891 -2.126091,0.506588 -10.328269,0.506588 H 41.143275 v 96.455915 96.45592 h -6.786148 -6.786149 z"
       style="fill:#800000;stroke-width:0.62681389" />
    <path
       id="path4053"
       d="m 27.570978,284.20106 v -6.52141 h 87.200712 87.2007 v 6.52141 6.52141 h -87.2007 -87.200712 z"
       style="fill:#800000;stroke-width:0.60693622" />
    <path
       id="path4055"
       d="m 10.060574,18.555079 v -6.52142 h 89.250293 89.250293 v 6.52142 6.52142 H 99.310867 10.060574 Z"
       style="fill:#800000;stroke-width:0.57786614" />
    <path
       id="path4057"
       d="m 168.40409,250.03709 c -6.41635,-16.67752 -11.84248,-30.71436 -12.05811,-31.19299 -0.39071,-0.86729 -0.35957,-0.8708 9.16022,-1.03226 l 9.55227,-0.16203 0.98172,-96.47512 0.9817,-96.47513 5.68208,-0.09637 5.68209,-0.09636 -0.98171,96.47514 -0.98171,96.47512 9.47012,-0.16063 c 5.20859,-0.0883 9.46941,-0.0875 9.4685,0.002 -0.003,0.22718 -24.84547,62.34885 -25.09111,62.74164 -0.10997,0.17592 -5.44974,-13.32539 -11.86606,-30.00291 z"
       style="fill:#800000;stroke-width:0.54338259" />
    <path
       id="path4059"
       d="m 63.403795,211.88485 v -3.56175 l 2.847811,-0.38324 c 1.566297,-0.21078 3.687056,-0.38561 4.712793,-0.38851 1.034435,-0.002 2.663371,-0.61424 3.657769,-1.37271 l 1.792794,-1.36741 0.0038,-54.19641 0.0038,-54.196419 -1.400833,-1.23454 c -1.763909,-1.554507 -2.275281,-1.706233 -7.41383,-2.19994 l -4.203914,-0.403864 v -3.594571 -3.594572 h 42.581555 42.5816 V 99.368876 113.3468 h -4.76829 -4.76798 l -1.21351,-8.33465 c -0.94035,-6.458621 -1.47568,-8.647356 -2.37829,-9.723791 l -1.1648,-1.389109 h -21.0605 -21.06064 v 24.91718 24.91724 l 14.78151,-0.0192 c 14.64119,-0.0191 14.79495,-0.0324 16.1975,-1.4172 1.176,-1.16108 1.52504,-2.26503 2.0595,-6.51397 0.35393,-2.81379 0.78133,-6.00479 0.94977,-7.09112 l 0.30622,-1.97515 h 4.00794 4.00795 v 21.27081 21.27078 h -3.99788 -3.99786 l -0.9471,-7.14089 c -1.41374,-10.65931 0.0367,-9.87575 -18.27929,-9.87575 H 92.14208 l 0.141196,27.50012 0.1412,27.5001 23.896174,0.15819 23.8962,0.15819 1.50203,-1.75648 c 1.30419,-1.52516 1.67402,-2.86669 2.80794,-10.18584 0.71828,-4.63614 1.43764,-9.04468 1.59857,-9.79674 0.27315,-1.27646 0.5806,-1.36742 4.62181,-1.36742 h 4.32918 v 15.4973 15.4973 H 109.24003 63.403795 Z"
       style="fill:#800000;stroke-width:0.57416153" />
    <path
       transform="scale(0.26458333)"
       id="path60"
       d="M 156.5378,685.53098 V 321.5641 l 38.61684,-0.46974 c 21.23926,-0.25837 39.05793,-0.91166 39.59706,-1.45179 0.92883,-0.93055 -64.41195,-149.11875 -87.9328,-199.42528 L 135.81447,96.68095 401.33679,96.32517 c 146.03728,-0.19568 265.856,-0.0221 266.26383,0.38573 1.08955,1.089557 -6.41679,723.25767 -7.52927,724.37425 -0.51945,0.52135 -16.2629,1.32556 -34.98548,1.78714 -18.72256,0.46156 -34.27336,0.93691 -34.55734,1.05634 -0.28395,0.11943 -0.21648,1.64316 0.14998,3.38612 0.64829,3.08352 60.45146,157.88248 77.20871,199.85285 4.60289,11.5284 8.36889,21.2689 8.36889,21.6455 0,0.3766 -116.93662,0.6848 -259.85915,0.6848 H 156.5378 Z m 429.57747,69.44487 V 695.6651 l -15.4432,0.5286 c -9.01461,0.30855 -16.11432,1.1997 -17.05541,2.14079 -0.8867,0.8867 -4.08476,16.6023 -7.10677,34.92354 -5.43026,32.92136 -7.3291,39.39103 -13.75744,46.87362 l -2.72252,3.16902 h -90.26718 -90.2672 V 679.70349 576.1063 l 54.57746,0.42817 c 59.98659,0.47061 60.3782,0.52532 64.39847,8.9974 1.21563,2.56177 3.46756,14.04085 5.00425,25.50907 1.53669,11.46819 3.13655,22.91114 3.55524,25.42874 l 0.76124,4.57747 h 15.42913 15.42914 v -81.69014 -81.69014 h -15.46613 c -14.89497,0 -15.49168,0.11704 -16.158,3.16901 -0.38053,1.74296 -2.0172,12.98163 -3.63703,24.97483 -1.61983,11.9932 -3.9505,23.92447 -5.17928,26.51393 -4.52691,9.53976 -3.48938,9.38018 -64.07232,9.8549 l -54.64217,0.42817 v -93.73803 -93.73803 h 78.65494 c 87.22313,0 80.09252,-0.7729 85.15259,9.22995 2.01723,3.98767 8.13669,37.22703 10.29337,55.9109 l 0.93482,8.09859 h 18.82017 18.82016 v -52.8169 -52.8169 H 400.904 239.63639 v 13.87818 13.8782 l 16.34993,1.65758 c 16.35501,1.65809 22.42344,3.58857 28.36838,9.02447 l 3.16902,2.89767 v 205.19673 205.19675 l -5.35095,3.70819 c -5.63733,3.90669 -13.62873,5.74175 -31.62088,7.26109 l -10.9155,0.92176 v 13.96434 13.96433 h 173.23944 173.23944 z"
       style="fill:#cccccc;stroke-width:1.40845072" />
  </g>
</svg>
